<svg width="56" height="56" viewBox="0 0 56 56" fill="none" xmlns="http://www.w3.org/2000/svg">
<path opacity="0.2" d="M27.9993 33.2503C20.6269 33.2618 13.3826 31.3237 7.00098 27.6324V45.5003C7.00097 45.7301 7.04624 45.9576 7.13418 46.17C7.22213 46.3823 7.35103 46.5752 7.51354 46.7377C7.67604 46.9002 7.86896 47.0291 8.08128 47.1171C8.2936 47.205 8.52116 47.2503 8.75098 47.2503H47.251C47.4808 47.2503 47.7084 47.205 47.9207 47.1171C48.133 47.0291 48.3259 46.9002 48.4884 46.7377C48.6509 46.5752 48.7798 46.3823 48.8678 46.17C48.9557 45.9576 49.001 45.7301 49.001 45.5003V27.6304C42.6185 31.323 35.3729 33.2619 27.9993 33.2503Z" fill="#F249C8"/>
<path d="M47.251 15.75H8.75098C7.78448 15.75 7.00098 16.5335 7.00098 17.5V45.5C7.00098 46.4665 7.78448 47.25 8.75098 47.25H47.251C48.2175 47.25 49.001 46.4665 49.001 45.5V17.5C49.001 16.5335 48.2175 15.75 47.251 15.75Z" stroke="#F249C8" stroke-width="3" stroke-linecap="round" stroke-linejoin="round"/>
<path d="M36.75 15.7505V12.2505C36.75 11.3222 36.3813 10.432 35.7249 9.77561C35.0685 9.11924 34.1783 8.75049 33.25 8.75049H22.75C21.8217 8.75049 20.9315 9.11924 20.2751 9.77561C19.6187 10.432 19.25 11.3222 19.25 12.2505V15.7505" stroke="#F249C8" stroke-width="3" stroke-linecap="round" stroke-linejoin="round"/>
<path d="M49.0013 27.6304C42.6188 31.323 35.3732 33.2618 27.9995 33.2502C20.6271 33.2618 13.3827 31.3236 7.00098 27.6322" stroke="#F249C8" stroke-width="3" stroke-linecap="round" stroke-linejoin="round"/>
<path d="M25.374 26.2495H30.624" stroke="#F249C8" stroke-width="3" stroke-linecap="round" stroke-linejoin="round"/>
</svg>
