<svg width="56" height="56" viewBox="0 0 56 56" fill="none" xmlns="http://www.w3.org/2000/svg">
<path opacity="0.2" d="M12.249 12.251V24.3033C12.249 32.9877 19.1954 40.1862 27.8796 40.2505C29.9579 40.2663 32.0188 39.8705 33.9434 39.0861C35.8681 38.3017 37.6185 37.1441 39.0936 35.6801C40.5688 34.216 41.7397 32.4745 42.5387 30.5558C43.3377 28.6372 43.749 26.5793 43.749 24.501V12.251C43.749 11.7868 43.5646 11.3417 43.2365 11.0135C42.9083 10.6854 42.4632 10.501 41.999 10.501H13.999C13.5349 10.501 13.0898 10.6854 12.7616 11.0135C12.4334 11.3417 12.249 11.7868 12.249 12.251Z" fill="#7534FF"/>
<path d="M12.249 12.251V24.3033C12.249 32.9877 19.1954 40.1862 27.8796 40.2505C29.9579 40.2663 32.0188 39.8705 33.9434 39.0861C35.8681 38.3017 37.6185 37.1441 39.0936 35.6801C40.5688 34.216 41.7397 32.4745 42.5387 30.5558C43.3377 28.6372 43.749 26.5793 43.749 24.501V12.251C43.749 11.7868 43.5646 11.3417 43.2365 11.0135C42.9083 10.6854 42.4632 10.501 41.999 10.501H13.999C13.5349 10.501 13.0898 10.6854 12.7616 11.0135C12.4334 11.3417 12.249 11.7868 12.249 12.251Z" stroke="#7534FF" stroke-width="6.78125" stroke-linecap="round" stroke-linejoin="round"/>
<path d="M20.999 49.0005H34.999" stroke="#7534FF" stroke-width="6.78125" stroke-linecap="round" stroke-linejoin="round"/>
<path d="M27.999 40.2505V49.0005" stroke="#7534FF" stroke-width="6.78125" stroke-linecap="round" stroke-linejoin="round"/>
<path d="M43.3604 28H45.5007C47.3572 28 49.1377 27.2625 50.4504 25.9497C51.7632 24.637 52.5007 22.8565 52.5007 21V17.5C52.5007 17.0359 52.3163 16.5908 51.9881 16.2626C51.6599 15.9344 51.2148 15.75 50.7507 15.75H43.7507" stroke="#7534FF" stroke-width="6.78125" stroke-linecap="round" stroke-linejoin="round"/>
<path d="M12.6801 28H10.4727C8.61614 28 6.83566 27.2625 5.52291 25.9497C4.21015 24.637 3.47266 22.8565 3.47266 21V17.5C3.47266 17.0359 3.65703 16.5908 3.98522 16.2626C4.31341 15.9344 4.75853 15.75 5.22266 15.75H12.2227" stroke="#7534FF" stroke-width="6.78125" stroke-linecap="round" stroke-linejoin="round"/>
</svg>
