<svg width="56" height="56" viewBox="0 0 56 56" fill="none" xmlns="http://www.w3.org/2000/svg">
<path opacity="0.2" d="M28 49C39.598 49 49 39.598 49 28C49 16.402 39.598 7 28 7C16.402 7 7 16.402 7 28C7 39.598 16.402 49 28 49Z" fill="#FF8800"/>
<path d="M28 49C39.598 49 49 39.598 49 28C49 16.402 39.598 7 28 7C16.402 7 7 16.402 7 28C7 39.598 16.402 49 28 49Z" stroke="#FF8800" stroke-width="6.78125" stroke-miterlimit="10"/>
<path d="M37.0947 33.2485C36.1722 34.8441 34.8462 36.169 33.2497 37.09C31.6533 38.0111 29.8426 38.496 27.9996 38.496C26.1565 38.496 24.3458 38.0112 22.7493 37.0901C21.1529 36.1691 19.8268 34.8443 18.9043 33.2487" stroke="#FF8800" stroke-width="6.78125" stroke-linecap="round" stroke-linejoin="round"/>
<path d="M19.3604 23.6245C19.3604 23.2017 19.7031 22.8589 20.126 22.8589C20.5488 22.8589 20.8916 23.2017 20.8916 23.6245C20.8916 24.0474 20.5488 24.3901 20.126 24.3901C19.7031 24.3901 19.3604 24.0474 19.3604 23.6245Z" fill="#FF8800" stroke="#FF8800" stroke-width="6.78125"/>
<path d="M35.1104 23.6245C35.1104 23.2017 35.4531 22.8589 35.876 22.8589C36.2988 22.8589 36.6416 23.2017 36.6416 23.6245C36.6416 24.0474 36.2988 24.3901 35.876 24.3901C35.4531 24.3901 35.1104 24.0474 35.1104 23.6245Z" fill="#FF8800" stroke="#FF8800" stroke-width="6.78125"/>
</svg>
