<svg width="57" height="56" viewBox="0 0 57 56" fill="none" xmlns="http://www.w3.org/2000/svg">
<path opacity="0.2" d="M19.251 34.999C25.5332 34.999 30.626 29.9063 30.626 23.624C30.626 17.3418 25.5332 12.249 19.251 12.249C12.9687 12.249 7.87598 17.3418 7.87598 23.624C7.87598 29.9063 12.9687 34.999 19.251 34.999Z" fill="#0F9918"/>
<path d="M19.251 34.999C25.5332 34.999 30.626 29.9063 30.626 23.624C30.626 17.3418 25.5332 12.249 19.251 12.249C12.9687 12.249 7.87598 17.3418 7.87598 23.624C7.87598 29.9063 12.9687 34.999 19.251 34.999Z" stroke="#0F9918" stroke-width="6.78125" stroke-miterlimit="10"/>
<path d="M33.9971 12.6734C35.5616 12.2326 37.2025 12.1322 38.8091 12.3789C40.4157 12.6256 41.9508 13.2138 43.311 14.1038C44.6711 14.9937 45.8248 16.1648 46.6943 17.5382C47.5637 18.9116 48.1288 20.4553 48.3514 22.0655C48.574 23.6756 48.4489 25.3148 47.9847 26.8725C47.5204 28.4303 46.7278 29.8705 45.6601 31.0961C44.5923 32.3217 43.2744 33.3043 41.795 33.9776C40.3155 34.651 38.709 34.9995 37.0835 34.9997" stroke="#0F9918" stroke-width="6.78125" stroke-linecap="round" stroke-linejoin="round"/>
<path d="M3.49902 43.1795C5.27557 40.6525 7.63404 38.5901 10.3753 37.1663C13.1166 35.7425 16.1602 34.9991 19.2492 34.999C22.3382 34.9989 25.3819 35.742 28.1233 37.1656C30.8646 38.5892 33.2233 40.6515 35 43.1783" stroke="#0F9918" stroke-width="6.78125" stroke-linecap="round" stroke-linejoin="round"/>
<path d="M37.083 34.999C40.1723 34.9968 43.2166 35.739 45.9582 37.1628C48.6998 38.5865 51.058 40.65 52.8331 43.1784" stroke="#0F9918" stroke-width="6.78125" stroke-linecap="round" stroke-linejoin="round"/>
</svg>
