<svg width="40" height="40" viewBox="0 0 40 40" fill="none" xmlns="http://www.w3.org/2000/svg">
<path fill-rule="evenodd" clip-rule="evenodd" d="M33.333 12.4997C33.333 7.43634 29.2297 3.33301 24.1663 3.33301C19.103 3.33301 14.9997 7.43634 14.9997 12.4997C14.9997 17.563 19.103 21.6663 24.1663 21.6663C29.2297 21.6663 33.333 17.563 33.333 12.4997ZM9.99967 19.9997C13.683 19.9997 16.6663 22.983 16.6663 26.6663C16.6663 30.3497 13.683 33.333 9.99967 33.333C6.31634 33.333 3.33301 30.3497 3.33301 26.6663C3.33301 22.983 6.31634 19.9997 9.99967 19.9997ZM26.6663 26.6663C29.428 26.6663 31.6663 28.9047 31.6663 31.6663C31.6663 34.428 29.428 36.6663 26.6663 36.6663C23.9047 36.6663 21.6663 34.428 21.6663 31.6663C21.6663 28.9047 23.9047 26.6663 26.6663 26.6663Z" fill="#416FF4"/>
</svg>
