<svg width="40" height="40" viewBox="0 0 40 40" fill="none" xmlns="http://www.w3.org/2000/svg">
<path fill-rule="evenodd" clip-rule="evenodd" d="M7.29178 12.6376C5.5351 18.1768 7.56817 24.2157 12.3171 27.5647H12.3154L8.84378 35.4997C8.73125 35.7575 8.75641 36.0547 8.91067 36.29C9.06492 36.5252 9.32746 36.6668 9.60878 36.6664H30.3921C30.6739 36.667 30.9369 36.5252 31.0913 36.2895C31.2456 36.0538 31.2704 35.756 31.1571 35.498L27.6854 27.5647C32.4344 24.2157 34.4675 18.1768 32.7108 12.6376C30.9541 7.09847 25.8123 3.33496 20.0013 3.33496C14.1902 3.33496 9.04845 7.09848 7.29178 12.6376ZM20.0005 23.3253C16.9437 23.3253 14.2781 21.2474 13.5321 18.283L16.7654 17.4747C17.1347 18.9609 18.4691 20.0043 20.0004 20.0043C21.5318 20.0043 22.8662 18.9609 23.2354 17.4747L26.4688 18.283C25.7228 21.2474 23.0572 23.3253 20.0005 23.3253Z" fill="#CB41F4"/>
</svg>
