<svg width="31" height="30" viewBox="0 0 31 30" fill="none" xmlns="http://www.w3.org/2000/svg">
<g clip-path="url(#clip0_567_980)">
<path d="M30.4082 15C30.4082 6.71572 23.6925 0 15.4082 0C7.12393 0 0.408203 6.71572 0.408203 15C0.408203 22.4868 5.89346 28.6925 13.0645 29.8178V19.3359H9.25586V15H13.0645V11.6953C13.0645 7.93594 15.3039 5.85937 18.7302 5.85937C20.3708 5.85937 22.0879 6.15234 22.0879 6.15234V9.84375H20.1965C18.3332 9.84375 17.752 11.0001 17.752 12.1875V15H21.9121L21.2471 19.3359H17.752V29.8178C24.9229 28.6925 30.4082 22.4868 30.4082 15Z" fill="#1E1E1E"/>
</g>
<defs>
<clipPath id="clip0_567_980">
<rect width="30" height="30" fill="white" transform="translate(0.408203)"/>
</clipPath>
</defs>
</svg>
