<svg width="40" height="40" viewBox="0 0 40 40" fill="none" xmlns="http://www.w3.org/2000/svg">
<circle cx="20" cy="20" r="19.5" transform="rotate(-180 20 20)" stroke="#1E1E1E"/>
<path d="M13.3882 18.9722L21.3882 10.9722C21.7607 10.6027 22.2635 10.3944 22.7882 10.3922C23.3198 10.3891 23.8308 10.5978 24.2082 10.9722C24.5868 11.3477 24.7998 11.8589 24.7998 12.3922C24.7998 12.9254 24.5868 13.4366 24.2082 13.8122L17.6282 20.3922L24.1682 26.9722C24.6755 27.4795 24.8737 28.2189 24.688 28.9119C24.5023 29.6049 23.961 30.1462 23.268 30.3319C22.575 30.5176 21.8355 30.3195 21.3282 29.8122L13.3282 21.8122C12.9574 21.4287 12.7552 20.913 12.7664 20.3797C12.7777 19.8463 13.0015 19.3396 13.3882 18.9722Z" fill="#1E1E1E"/>
</svg>
