<svg width="19" height="18" viewBox="0 0 19 18" fill="none" xmlns="http://www.w3.org/2000/svg">
<path d="M0.639732 3.56227C0.212478 3.16558 0 2.67455 0 2.09031C0 1.50608 0.213614 0.993431 0.639732 0.595603C1.06699 0.198913 1.61697 0 2.2908 0C2.96464 0 3.49303 0.198913 3.91915 0.595603C4.3464 0.992294 4.55888 1.4913 4.55888 2.09031C4.55888 2.68933 4.34527 3.16558 3.91915 3.56227C3.4919 3.95896 2.94986 4.15787 2.2908 4.15787C1.63174 4.15787 1.06699 3.95896 0.639732 3.56227ZM4.19982 5.83785V18H0.357928V5.83785H4.19982Z" fill="white"/>
<path d="M16.9893 7.03976C17.8268 7.94908 18.245 9.19715 18.245 10.7862V17.7857H14.5963V11.2795C14.5963 10.4781 14.3883 9.85526 13.9736 9.41196C13.5588 8.96867 12.9998 8.74587 12.2998 8.74587C11.5998 8.74587 11.0407 8.96753 10.626 9.41196C10.2112 9.85526 10.0033 10.4781 10.0033 11.2795V17.7857H6.33301V5.80424H10.0033V7.39327C10.3749 6.86359 10.876 6.4453 11.5055 6.13727C12.135 5.82924 12.843 5.67578 13.6304 5.67578C15.0326 5.67578 16.153 6.13044 16.9893 7.03976Z" fill="white"/>
</svg>
