<svg width="31" height="30" viewBox="0 0 31 30" fill="none" xmlns="http://www.w3.org/2000/svg">
<path d="M1.06622 5.93712C0.354129 5.27597 0 4.45759 0 3.48386C0 2.51013 0.356023 1.65572 1.06622 0.992672C1.77831 0.331521 2.69494 0 3.818 0C4.94106 0 5.82172 0.331521 6.53192 0.992672C7.24401 1.65382 7.59814 2.4855 7.59814 3.48386C7.59814 4.48222 7.24211 5.27597 6.53192 5.93712C5.81983 6.59827 4.91644 6.92979 3.818 6.92979C2.71956 6.92979 1.77831 6.59827 1.06622 5.93712ZM6.99969 9.72974V30H0.596547V9.72974H6.99969Z" fill="black"/>
<path d="M28.3153 11.7333C29.711 13.2488 30.408 15.3289 30.408 17.9773V29.6431H24.3268V18.7994C24.3268 17.4639 23.9803 16.4258 23.289 15.6869C22.5977 14.9481 21.666 14.5768 20.4993 14.5768C19.3327 14.5768 18.4009 14.9462 17.7096 15.6869C17.0184 16.4258 16.6718 17.4639 16.6718 18.7994V29.6431H10.5547V9.67405H16.6718V12.3224C17.2911 11.4396 18.1263 10.7425 19.1755 10.2291C20.2247 9.71572 21.4046 9.45996 22.717 9.45996C25.0541 9.45996 26.9214 10.2177 28.3153 11.7333Z" fill="black"/>
</svg>
