<svg width="40" height="40" viewBox="0 0 40 40" fill="none" xmlns="http://www.w3.org/2000/svg">
<circle cx="20" cy="20" r="19.5" stroke="#1E1E1E"/>
<path d="M26.6118 21.0278L18.6118 29.0278C18.2393 29.3973 17.7365 29.6056 17.2118 29.6078C16.6802 29.6109 16.1692 29.4022 15.7918 29.0278C15.4132 28.6523 15.2002 28.1411 15.2002 27.6078C15.2002 27.0746 15.4132 26.5634 15.7918 26.1878L22.3718 19.6078L15.8318 13.0278C15.3245 12.5205 15.1263 11.7811 15.312 11.0881C15.4977 10.3951 16.039 9.85377 16.732 9.66808C17.425 9.48239 18.1645 9.68052 18.6718 10.1878L26.6718 18.1878C27.0426 18.5713 27.2448 19.087 27.2336 19.6203C27.2223 20.1537 26.9985 20.6604 26.6118 21.0278Z" fill="#1E1E1E"/>
</svg>
